<?xml version="1.0" encoding="iso-8859-1"?>
<!-- Generator: Adobe Illustrator 19.0.0, SVG Export Plug-In . SVG Version: 6.00 Build 0)  -->
<svg version="1.1" id="Capa_1" xmlns="http://www.w3.org/2000/svg" xmlns:xlink="http://www.w3.org/1999/xlink" x="0px" y="0px"
	 viewBox="0 0 512 512" style="enable-background:new 0 0 512 512;" xml:space="preserve">
<g>
	<g>
		<path style="fill:#BDC3C7;" d="M450.207,97.103h26.483c9.739,0.029,17.627,7.916,17.655,17.655v344.276H17.655V114.759
			c0.029-9.739,7.916-17.627,17.655-17.655H450.207z"/>
		<path style="fill:#8697CB;" d="M406.069,132.414h44.138c4.869,0.014,8.813,3.958,8.828,8.828v291.31H52.966v-291.31
			c0.014-4.869,3.958-8.813,8.828-8.828H406.069z"/>
		<path style="fill:#7F8C8D;" d="M512,441.379v35.31c0.003,9.366-3.717,18.348-10.339,24.971
			c-6.623,6.622-15.605,10.342-24.971,10.339H35.31c-9.366,0.003-18.348-3.717-24.971-10.339C3.717,495.038-0.003,486.055,0,476.69
			v-35.31c0.015-4.869,3.958-8.813,8.828-8.828h494.345C508.042,432.566,511.985,436.51,512,441.379z"/>
		<path style="fill:#95A5A5;" d="M315.709,467.862H196.291c-6.687,0-12.801-3.778-15.791-9.76l-12.775-25.551h176.552
			l-12.775,25.551C328.51,464.084,322.396,467.862,315.709,467.862z"/>
		<g>
			<path style="fill:#BDC3C7;" d="M114.759,467.862c-0.015,4.869-3.958,8.813-8.828,8.828H0v-17.655h105.931
				C110.8,459.049,114.744,462.993,114.759,467.862z"/>
			<path style="fill:#BDC3C7;" d="M150.069,459.034h-8.828c-4.875,0-8.828,3.952-8.828,8.828s3.952,8.828,8.828,8.828h8.828
				c4.875,0,8.828-3.952,8.828-8.828S154.944,459.034,150.069,459.034z"/>
			<path style="fill:#BDC3C7;" d="M512,459.034v17.655H406.069c-4.875,0-8.828-3.952-8.828-8.828s3.952-8.828,8.828-8.828H512z"/>
			<path style="fill:#BDC3C7;" d="M370.759,459.034h-8.828c-4.875,0-8.828,3.952-8.828,8.828s3.952,8.828,8.828,8.828h8.828
				c4.875,0,8.828-3.952,8.828-8.828S375.634,459.034,370.759,459.034z"/>
		</g>
	</g>
	<path style="fill:#4482C3;" d="M450.207,17.655v114.759h-51.465l-36.811,52.966l-36.811-52.966h-51.465V17.655
		C273.684,7.916,281.572,0.029,291.31,0h141.241C442.291,0.029,450.178,7.916,450.207,17.655z"/>
	<path style="fill:#14A085;" d="M238.345,17.655v114.759H186.88l-36.811,52.966l-36.811-52.966H61.793V17.655
		C61.822,7.916,69.709,0.029,79.448,0H220.69C230.429,0.029,238.316,7.916,238.345,17.655z"/>
	<g>
		<g>
			<path style="fill:#FFFFFF;" d="M114.759,61.793h-8.828c-4.875,0-8.828,3.952-8.828,8.828s3.952,8.828,8.828,8.828h8.828
				c4.875,0,8.828-3.952,8.828-8.828S119.634,61.793,114.759,61.793z"/>
			<path style="fill:#FFFFFF;" d="M150.069,61.793h-8.828c-4.875,0-8.828,3.952-8.828,8.828s3.952,8.828,8.828,8.828h8.828
				c4.875,0,8.828-3.952,8.828-8.828S154.944,61.793,150.069,61.793z"/>
			<path style="fill:#FFFFFF;" d="M185.379,61.793h-8.828c-4.875,0-8.828,3.952-8.828,8.828s3.952,8.828,8.828,8.828h8.828
				c4.875,0,8.828-3.952,8.828-8.828S190.255,61.793,185.379,61.793z"/>
			<path style="fill:#FFFFFF;" d="M326.621,61.793h-8.828c-4.875,0-8.828,3.952-8.828,8.828s3.952,8.828,8.828,8.828h8.828
				c4.875,0,8.828-3.952,8.828-8.828S331.496,61.793,326.621,61.793z"/>
			<path style="fill:#FFFFFF;" d="M361.931,61.793h-8.828c-4.875,0-8.828,3.952-8.828,8.828s3.952,8.828,8.828,8.828h8.828
				c4.875,0,8.828-3.952,8.828-8.828S366.806,61.793,361.931,61.793z"/>
			<path style="fill:#FFFFFF;" d="M397.241,61.793h-8.828c-4.875,0-8.828,3.952-8.828,8.828s3.952,8.828,8.828,8.828h8.828
				c4.875,0,8.828-3.952,8.828-8.828S402.117,61.793,397.241,61.793z"/>
		</g>
		<g>
			<path style="fill:#E6E7E8;" d="M300.138,256h105.931c4.875,0,8.828-3.952,8.828-8.828s-3.952-8.828-8.828-8.828H300.138
				c-4.875,0-8.828,3.952-8.828,8.828S295.263,256,300.138,256z"/>
			<path style="fill:#E6E7E8;" d="M406.069,273.655H300.138c-4.875,0-8.828,3.952-8.828,8.828s3.952,8.828,8.828,8.828h105.931
				c4.875,0,8.828-3.952,8.828-8.828S410.944,273.655,406.069,273.655z"/>
			<path style="fill:#E6E7E8;" d="M406.069,308.966H300.138c-4.875,0-8.828,3.952-8.828,8.828s3.952,8.828,8.828,8.828h105.931
				c4.875,0,8.828-3.952,8.828-8.828S410.944,308.966,406.069,308.966z"/>
			<path style="fill:#E6E7E8;" d="M406.069,344.276H300.138c-4.875,0-8.828,3.952-8.828,8.828s3.952,8.828,8.828,8.828h105.931
				c4.875,0,8.828-3.952,8.828-8.828S410.944,344.276,406.069,344.276z"/>
		</g>
		<circle style="fill:#14A085;" cx="185.379" cy="300.138" r="79.448"/>
		<path style="fill:#E6E7E8;" d="M229.517,342.847c0.052,10.283-3.3,20.294-9.534,28.472c-21.753,11.022-47.455,11.022-69.208,0
			c-8.642-11.399-11.614-26.117-8.073-39.976s13.208-25.348,26.258-31.206h0.088c9.432,7.961,23.23,7.961,32.662,0h0.088
			C218.747,307.551,229.649,324.349,229.517,342.847z"/>
		<path style="fill:#FFFFFF;" d="M211.862,282.483c0.059,8.105-3.662,15.774-10.063,20.745h-0.088
			c-9.543,7.651-23.119,7.651-32.662,0h-0.088c-6.402-4.971-10.122-12.64-10.063-20.745c0-14.626,11.857-26.483,26.483-26.483
			C200.005,256,211.862,267.857,211.862,282.483z"/>
	</g>
</g>
<g>
</g>
<g>
</g>
<g>
</g>
<g>
</g>
<g>
</g>
<g>
</g>
<g>
</g>
<g>
</g>
<g>
</g>
<g>
</g>
<g>
</g>
<g>
</g>
<g>
</g>
<g>
</g>
<g>
</g>
</svg>
