<?xml version="1.0" encoding="iso-8859-1"?>
<!-- Generator: Adobe Illustrator 19.0.0, SVG Export Plug-In . SVG Version: 6.00 Build 0)  -->
<svg version="1.1" id="Capa_1" xmlns="http://www.w3.org/2000/svg" xmlns:xlink="http://www.w3.org/1999/xlink" x="0px" y="0px"
	 viewBox="0 0 512 512" style="enable-background:new 0 0 512 512;" xml:space="preserve">
<circle style="fill:#FFB14E;" cx="256" cy="256" r="256"/>
<path style="fill:#FF755C;" d="M512,256c0-5.22-0.175-10.398-0.483-15.541L337.591,108.061l-43.212-43.728L64.333,294.379
	l43.728,43.212l39.543,81.072c0,0,60.418,60.418,92.854,92.854C245.602,511.825,250.78,512,256,512C397.385,512,512,397.385,512,256
	z"/>
<path style="fill:#092A40;" d="M447.667,294.379v-76.758l-29.887-8.688c-3.435-11.832-8.162-23.237-14.107-34.04l14.994-27.284
	l-54.275-54.276l-27.285,14.994c-10.803-5.945-22.209-10.672-34.04-14.108l-8.688-29.886H256L166.156,256L256,447.667h38.379
	l8.688-29.886c11.831-3.435,23.237-8.162,34.041-14.108l27.284,14.994l54.275-54.275l-14.994-27.284
	c5.946-10.803,10.672-22.209,14.107-34.04L447.667,294.379z"/>
<path style="fill:#235C81;" d="M217.621,64.333l-8.688,29.886c-11.831,3.435-23.237,8.162-34.04,14.108l-27.285-14.994
	l-54.275,54.276l14.994,27.284c-5.945,10.804-10.672,22.209-14.108,34.04l-29.886,8.688v76.757l29.886,8.688
	c3.435,11.831,8.163,23.236,14.108,34.04L93.333,364.39l54.275,54.275l27.284-14.994c10.804,5.945,22.209,10.672,34.041,14.108
	l8.688,29.886H256V64.333H217.621z"/>
<g>
	<path style="fill:#5A7587;" d="M256,121.234L179.547,256l132.609,122.502c46.352-21.333,78.61-68.221,78.61-122.502
		C390.766,181.69,330.31,121.235,256,121.234z"/>
	<path style="fill:#5A7587;" d="M256,121.234c-74.31,0-134.766,60.456-134.766,134.766c0,54.281,32.258,101.17,78.611,122.502H256
		V121.234z"/>
</g>
<path style="fill:#FFCE47;" d="M360.818,256c0-57.797-47.021-104.818-104.818-104.818L196.536,256L256,360.818
	C313.797,360.818,360.818,313.797,360.818,256z"/>
<path style="fill:#FFE290;" d="M256,151.182c-57.797,0-104.818,47.021-104.818,104.818S198.203,360.818,256,360.818V151.182z"/>
<polygon style="fill:#092A40;" points="281.67,222.875 256,177.953 233.539,256.567 "/>
<polygon style="fill:#235C81;" points="256,177.953 230.331,222.875 256,256.567 "/>
<polygon style="fill:#FFF5D9;" points="222.309,309.912 312.152,276.22 281.67,222.875 256,222.875 "/>
<polygon style="fill:#FFFFFF;" points="256,222.875 230.331,222.875 199.848,276.221 256,309.912 "/>
<path style="fill:#45A2E0;" d="M223.673,333.493L256,390.766c20.03,0,39.049-4.399,56.152-12.271V276.22H256L223.673,333.493z"/>
<path style="fill:#4EB9FF;" d="M199.848,276.221v102.274c17.104,7.872,36.123,12.271,56.152,12.271V276.221H199.848z"/>
<g>
</g>
<g>
</g>
<g>
</g>
<g>
</g>
<g>
</g>
<g>
</g>
<g>
</g>
<g>
</g>
<g>
</g>
<g>
</g>
<g>
</g>
<g>
</g>
<g>
</g>
<g>
</g>
<g>
</g>
</svg>
