<?xml version="1.0" encoding="iso-8859-1"?>
<!-- Generator: Adobe Illustrator 16.0.0, SVG Export Plug-In . SVG Version: 6.00 Build 0)  -->
<!DOCTYPE svg PUBLIC "-//W3C//DTD SVG 1.1//EN" "http://www.w3.org/Graphics/SVG/1.1/DTD/svg11.dtd">
<svg version="1.1" id="Capa_1" xmlns="http://www.w3.org/2000/svg" xmlns:xlink="http://www.w3.org/1999/xlink" x="0px" y="0px"
	 width="47.002px" height="47.002px" viewBox="0 0 47.002 47.002" style="enable-background:new 0 0 47.002 47.002;"
	 xml:space="preserve">
<g>
	<g>
		<path d="M41.982,17.605c-0.984-3.458-2.834-6.631-5.447-9.242c-8.345-8.346-21.923-8.345-30.266,0C2.226,12.405,0,17.78,0,23.496
			c0,5.718,2.226,11.09,6.269,15.132c4.042,4.043,9.417,6.271,15.132,6.271v-5.033c-4.37,0-8.48-1.704-11.572-4.795
			c-3.092-3.093-4.793-7.201-4.793-11.573c0-4.373,1.701-8.482,4.793-11.573c6.382-6.381,16.763-6.382,23.146,0
			c1.645,1.642,2.881,3.579,3.69,5.684h-4.772l7.555,12.594l7.555-12.594h-5.02V17.605z"/>
		<path d="M26.562,17.588c0-2.844-2.316-5.165-5.161-5.165c-2.846,0-5.16,2.321-5.16,5.165v3.718h-2.392v13.267h15.106V21.306
			h-2.393V17.588z M23.975,21.306h-5.15v-3.718c0-1.428,1.153-2.579,2.576-2.579c1.423,0,2.575,1.151,2.575,2.579L23.975,21.306
			L23.975,21.306z"/>
	</g>
</g>
<g>
</g>
<g>
</g>
<g>
</g>
<g>
</g>
<g>
</g>
<g>
</g>
<g>
</g>
<g>
</g>
<g>
</g>
<g>
</g>
<g>
</g>
<g>
</g>
<g>
</g>
<g>
</g>
<g>
</g>
</svg>
